<?xml version="1.0" encoding="utf-8"?>
<!-- Generator: Adobe Illustrator 16.0.0, SVG Export Plug-In . SVG Version: 6.00 Build 0)  -->
<!DOCTYPE svg PUBLIC "-//W3C//DTD SVG 1.1//EN" "http://www.w3.org/Graphics/SVG/1.1/DTD/svg11.dtd">
<svg version="1.1" id="Layer_1" xmlns="http://www.w3.org/2000/svg" xmlns:xlink="http://www.w3.org/1999/xlink" x="0px" y="0px"
	 width="128px" height="128px" viewBox="0 0 128 128" enable-background="new 0 0 128 128" xml:space="preserve">
<path fill="#0065A9" d="M65.839,122.352c-13.949,0-27.905,0-41.872,0.008c-5.246,0.008-9.388-3.195-12.41-9.582
	c-1.788-3.81-2.572-8.119-2.572-12.778c0.016-23.117-0.008-46.233,0.016-69.333C9.018,18.01,15.442,8.424,23.928,8.393
	c11.637-0.056,23.271-0.017,34.917-0.017c16.318,0,32.636-0.008,48.953,0.008c8.856,0.008,15.196,9.61,15.187,22.897
	c-0.016,22.775-0.006,45.562-0.006,68.336c0,13.209-6.309,22.734-15.119,22.742C93.848,122.367,79.854,122.352,65.839,122.352z
	 M65.984,118.313c13.957,0,27.912,0,41.875,0c7.301-0.01,12.453-7.777,12.453-18.75c0.01-22.656,0.01-45.312,0-67.964
	c0-11.522-5.041-19.184-12.707-19.184c-27.832-0.016-55.667-0.016-83.493,0c-7.288,0-12.449,7.856-12.449,18.794
	c0,22.651,0,45.307,0,67.945c0,11.563,5.05,19.147,12.72,19.156C38.24,118.313,52.116,118.313,65.984,118.313z"/>
<path fill="#0065A9" d="M117.469,65.221c0,10.855,0.008,21.695,0,32.553c-0.007,10.478-4.525,17.948-10.82,17.957
	c-8.966,0.008-17.924,0.008-26.879,0c-6.104,0-10.765-7.625-10.771-17.723c-0.021-22.041-0.016-44.042,0-66.078
	c0.007-9.775,4.622-17.398,10.533-17.424c9.127-0.025,18.246-0.025,27.365-0.008c5.979,0.018,10.549,7.633,10.564,17.596
	C117.492,43.132,117.469,54.181,117.469,65.221z"/>
<path fill="#0065A9" d="M44.511,62.338c-2.214-2.155-4.462-4.29-6.652-6.472c-1.546-1.556-1.685-2.867-0.414-4.008
	c1.4-1.262,2.681-0.78,3.884,0.409c3.55,3.519,7.118,6.995,10.647,10.512c1.305,1.285,1.381,4.144,0.101,5.463
	c-3.543,3.599-7.125,7.168-10.724,10.724c-1.197,1.185-2.542,1.231-3.729,0.008c-1.212-1.239-0.986-2.575,0.204-3.721
	c2.261-2.228,4.543-4.397,7.271-7.06c-1.305-0.065-1.988-0.123-2.672-0.123c-6.325-0.008-12.66-0.008-18.997-0.008
	c-0.473,0-0.95,0.018-1.415-0.017c-1.71-0.163-2.982-1.374-2.843-2.817c0.179-1.866,1.407-2.387,3.129-2.37
	c6.659,0.031,13.328,0.016,20.003,0.016c0.661,0,1.304,0,1.963,0C44.34,62.688,44.424,62.517,44.511,62.338z"/>
<g>
	<g>
		<g>
			<g>
				<g>
					<g>
						<rect x="54.924" y="65.223" fill="none" width="14.998" height="13.79"/>
					</g>
					<rect x="61.454" y="75.433" fill="#231F20" width="1.5" height="2.56"/>
					<rect x="61.454" y="70.842" fill="#231F20" width="1.5" height="2.561"/>
					<rect x="61.454" y="66.266" fill="#231F20" width="1.5" height="2.561"/>
				</g>
			</g>
			<g>
				<g>
					<g>
						<polygon fill="none" points="54.924,79.01 54.924,92.8 69.923,92.807 69.923,79.014 						"/>
					</g>
					<rect x="61.454" y="89.225" fill="#231F20" width="1.5" height="2.561"/>
					<rect x="61.454" y="84.633" fill="#231F20" width="1.5" height="2.561"/>
					<rect x="61.454" y="80.057" fill="#231F20" width="1.5" height="2.561"/>
				</g>
			</g>
			<g>
				<g>
					<g>
						<path fill="none" d="M54.924,92.8c0,0,0,0.86,0,2.153c0,0.646,0,1.4,0,2.209c0,0.201,0,0.406,0,0.613
							c-0.005,0.164-0.011,0.33-0.016,0.498c-0.008,0.334-0.017,0.674-0.025,1.014c-0.105,1.33-0.245,2.644-0.468,3.537
							c-0.079,0.471-0.198,0.813-0.262,1.068c-0.067,0.254-0.105,0.396-0.105,0.396l14.345,4.382c0,0,0.075-0.271,0.207-0.746
							c0.125-0.476,0.333-1.16,0.482-1.963c0.381-1.626,0.631-3.747,0.777-5.854c0.015-0.521,0.029-1.043,0.045-1.556
							c0.006-0.257,0.013-0.512,0.019-0.765c0-0.207,0-0.413,0-0.616c0-0.808,0-1.563,0-2.209c0-1.293,0-2.155,0-2.155L54.924,92.8z
							"/>
					</g>
					<path fill="#231F20" d="M62.537,103.078l-1.481-0.237c0,0-0.023,0.151-0.058,0.382c-0.046,0.227-0.108,0.529-0.17,0.831
						c-0.109,0.608-0.278,1.2-0.278,1.2l1.452,0.378c0,0,0.18-0.629,0.295-1.271c0.065-0.319,0.13-0.641,0.18-0.879
						C62.512,103.24,62.537,103.078,62.537,103.078z"/>
					<path fill="#231F20" d="M62.936,98.434l-1.5-0.027c0,0-0.017,0.621-0.034,1.244c-0.051,0.619-0.103,1.237-0.103,1.237
						l1.494,0.142c0,0,0.053-0.648,0.107-1.297C62.918,99.084,62.936,98.434,62.936,98.434z"/>
					<rect x="61.454" y="93.848" fill="#231F20" width="1.5" height="2.561"/>
				</g>
			</g>
			<g>
				<g>
					<g>
						<path fill="none" d="M54.047,104.29c0,0-0.042,0.141-0.127,0.37c-0.092,0.219-0.175,0.596-0.35,0.934
							c-0.283,0.764-0.788,1.581-1.2,2.064c-0.206,0.246-0.383,0.384-0.489,0.469c-0.108,0.066-0.149,0.089-0.156,0.088
							c-0.003,0.035-0.008-0.012-0.005-0.004c0-0.01,0.011,0.035,0.004,0.012c-0.005-0.021-0.005-0.01-0.006-0.011l0.849,14.976
							c0,0,0.429-0.023,1.176-0.104c0.373-0.025,0.821-0.145,1.335-0.256c0.51-0.125,1.102-0.244,1.687-0.488
							c1.215-0.426,2.526-1.092,3.745-1.945c1.208-0.857,2.315-1.883,3.225-2.949c1.828-2.142,2.998-4.391,3.658-6.029
							c0.381-0.832,0.566-1.508,0.75-1.989c0.168-0.481,0.248-0.754,0.25-0.754L54.047,104.29z"/>
					</g>
					<path fill="#231F20" d="M55.796,115.135l-0.748-1.301c0,0-0.48,0.308-1.013,0.482c-0.255,0.119-0.523,0.191-0.73,0.229
						c-0.203,0.048-0.339,0.08-0.339,0.08l0.286,1.473c0,0,0.167-0.039,0.417-0.097c0.254-0.05,0.583-0.14,0.896-0.281
						C55.219,115.501,55.796,115.135,55.796,115.135z"/>
					<path fill="#231F20" d="M59.267,111.848l-1.229-0.859c0,0-0.076,0.131-0.211,0.306c-0.14,0.172-0.326,0.399-0.513,0.628
						c-0.176,0.24-0.396,0.43-0.549,0.585c-0.155,0.153-0.259,0.255-0.259,0.255l1.015,1.105c0,0,0.12-0.118,0.3-0.295
						c0.177-0.178,0.431-0.402,0.63-0.672c0.211-0.259,0.421-0.518,0.58-0.711C59.183,111.992,59.268,111.848,59.267,111.848z"/>
					<path fill="#231F20" d="M61.381,107.648l-1.412-0.507c0,0-0.185,0.585-0.446,1.134c-0.122,0.277-0.245,0.555-0.336,0.764
						c-0.107,0.199-0.179,0.332-0.179,0.332l1.332,0.689c0,0,0.078-0.146,0.195-0.363c0.1-0.226,0.232-0.526,0.365-0.828
						C61.182,108.273,61.381,107.648,61.381,107.648z"/>
				</g>
			</g>
			<g>
				<g>
					<g>
						<path fill="none" d="M51.718,108.212l-0.001,0.005c-0.025,0.002,0.083,0.021-0.174,0.016c-0.377,0-0.916,0-1.562,0
							c-1.292,0-3.015,0-4.738,0c-3.446,0-6.892,0-6.892,0l0.002,14.998c0,0,3.45,0,6.899,0c1.725,0,3.45,0,4.744,0
							c0.647,0,1.186,0,1.563,0c0.12,0.006,0.523-0.016,0.7-0.025c0.201-0.012,0.308-0.018,0.308-0.018L51.718,108.212z"/>
					</g>
					<rect x="39.372" y="114.761" fill="#231F20" width="2.56" height="1.5"/>
					<rect x="43.963" y="114.761" fill="#231F20" width="2.56" height="1.5"/>
					<rect x="48.539" y="114.761" fill="#231F20" width="2.56" height="1.5"/>
				</g>
			</g>
			<g>
				<g>
					<g>
						<path fill="none" d="M38.352,108.232H25.24c0-0.012,0.001-0.023,0.002-0.021l-1.356,14.938l1.255,0.08h13.212L38.352,108.232z
							"/>
					</g>
					<rect x="25.581" y="114.761" fill="#231F20" width="2.56" height="1.5"/>
					<rect x="30.172" y="114.761" fill="#231F20" width="2.56" height="1.5"/>
					<rect x="34.748" y="114.761" fill="#231F20" width="2.56" height="1.5"/>
				</g>
			</g>
			<g>
				<g>
					<g>
						<path fill="none" d="M25.242,108.212c0,0,0,0.006-0.001,0.017c0.012-0.047-0.007,0.025,0.007-0.016
							c0.063,0.038-0.247-0.094-0.701-0.648c-0.447-0.539-0.945-1.416-1.245-2.17c-0.157-0.371-0.26-0.726-0.352-0.949
							c-0.09-0.229-0.118-0.383-0.118-0.383l-14.356,4.344c0,0,0.061,0.27,0.233,0.748c0.177,0.479,0.393,1.16,0.735,1.979
							c0.674,1.636,1.787,3.849,3.532,5.976c1.709,2.131,4.251,4.102,6.737,5.049c1.187,0.521,2.266,0.688,2.996,0.861
							c0.743,0.109,1.176,0.131,1.176,0.131L25.242,108.212z"/>
					</g>
					<path fill="#231F20" d="M16.49,109.798l1.339-0.677c0,0-0.078-0.129-0.166-0.34c-0.092-0.209-0.216-0.486-0.339-0.765
						c-0.132-0.272-0.231-0.563-0.308-0.778c-0.077-0.217-0.129-0.36-0.129-0.36l-1.415,0.499c0,0,0.056,0.154,0.139,0.386
						c0.082,0.231,0.188,0.542,0.331,0.839c0.134,0.301,0.268,0.602,0.368,0.826C16.406,109.654,16.49,109.798,16.49,109.798z"/>
					<path fill="#231F20" d="M19.251,113.654l1.047-1.074c-0.046,0.054-1.557-1.764-1.5-1.816l-1.243,0.842
						c0,0,0.352,0.562,0.793,1.064c0.21,0.259,0.416,0.521,0.604,0.689C19.132,113.537,19.251,113.654,19.251,113.654z"/>
					<path fill="#231F20" d="M23.414,116.039l0.342-1.463c0,0-0.551-0.102-1.055-0.346c-0.265-0.091-0.509-0.228-0.687-0.343
						c-0.183-0.106-0.304-0.179-0.304-0.179l-0.801,1.27c0,0,0.147,0.086,0.367,0.217c0.217,0.137,0.516,0.301,0.84,0.416
						C22.737,115.908,23.414,116.039,23.414,116.039z"/>
				</g>
			</g>
			<g>
				<g>
					<g>
						<path fill="none" d="M22.832,104.063c0,0-0.04-0.144-0.109-0.394c-0.081-0.242-0.17-0.61-0.258-1.069
							c-0.21-0.895-0.366-2.177-0.433-3.49c-0.01-0.332-0.02-0.664-0.03-0.99c-0.001-0.411-0.003-0.816-0.004-1.209
							c0-0.809,0-1.563,0-2.209c0-1.293,0-2.153,0-2.153L7,92.558c0,0,0,0.862,0,2.155c0,0.646,0,1.4,0,2.21
							c0.001,0.415,0.003,0.845,0.004,1.28c0.015,0.521,0.03,1.053,0.045,1.582c0.102,2.129,0.372,4.277,0.739,5.904
							c0.161,0.812,0.33,1.488,0.476,1.967c0.135,0.477,0.212,0.748,0.212,0.748L22.832,104.063z"/>
					</g>
					<rect x="13.968" y="93.57" fill="#231F20" width="1.5" height="2.561"/>
					<path fill="#231F20" d="M14.099,100.764l1.495-0.129c0,0-0.014-0.154-0.034-0.386c-0.024-0.231-0.048-0.54-0.05-0.853
						c-0.018-0.619-0.036-1.24-0.036-1.24l-1.5,0.008c0,0,0.019,0.65,0.038,1.301c0.003,0.324,0.028,0.65,0.053,0.895
						C14.085,100.602,14.099,100.764,14.099,100.764z"/>
					<path fill="#231F20" d="M14.857,105.359l1.454-0.371c0,0-0.049-0.146-0.092-0.373c-0.048-0.228-0.112-0.528-0.176-0.83
						c-0.145-0.6-0.217-1.215-0.217-1.215l-1.482,0.23c0,0,0.077,0.646,0.229,1.283c0.068,0.318,0.136,0.639,0.187,0.878
						C14.805,105.203,14.857,105.359,14.857,105.359z"/>
				</g>
			</g>
			<g>
				<g>
					<g>
						<polygon fill="none" points="21.998,92.548 21.998,78.758 7,78.764 7,92.557 						"/>
					</g>
					<rect x="13.968" y="79.779" fill="#231F20" width="1.5" height="2.561"/>
					<rect x="13.968" y="84.371" fill="#231F20" width="1.5" height="2.56"/>
					<rect x="13.968" y="88.947" fill="#231F20" width="1.5" height="2.56"/>
				</g>
			</g>
			<g>
				<g>
					<g>
						<rect x="7" y="64.97" fill="none" width="14.998" height="13.789"/>
					</g>
					<rect x="13.968" y="65.988" fill="#231F20" width="1.5" height="2.561"/>
					<rect x="13.968" y="70.58" fill="#231F20" width="1.5" height="2.56"/>
					<rect x="13.968" y="75.156" fill="#231F20" width="1.5" height="2.56"/>
				</g>
			</g>
			<g>
				<g>
					<g>
						<rect x="7" y="51.179" fill="none" width="14.998" height="13.789"/>
					</g>
					<rect x="13.968" y="52.198" fill="#231F20" width="1.5" height="2.56"/>
					<rect x="13.968" y="56.789" fill="#231F20" width="1.5" height="2.56"/>
					<rect x="13.968" y="61.365" fill="#231F20" width="1.5" height="2.56"/>
				</g>
			</g>
			<g>
				<g>
					<g>
						<polygon fill="none" points="21.998,51.18 21.998,37.392 7,37.383 7,51.177 						"/>
					</g>
					<rect x="13.968" y="38.406" fill="#231F20" width="1.5" height="2.56"/>
					<rect x="13.968" y="42.998" fill="#231F20" width="1.5" height="2.56"/>
					<rect x="13.968" y="47.574" fill="#231F20" width="1.5" height="2.56"/>
				</g>
			</g>
			<g>
				<g>
					<g>
						<path fill="none" d="M21.998,37.392c0,0,0-0.862,0-2.155c0-0.646,0-1.4,0-2.208c0.001-0.392,0.003-0.797,0.005-1.208
							c0.01-0.321,0.02-0.646,0.03-0.973c0.076-1.291,0.225-2.563,0.447-3.443c0.083-0.458,0.193-0.807,0.265-1.055
							c0.069-0.249,0.108-0.391,0.108-0.391L8.542,21.47c0,0-0.078,0.272-0.215,0.749c-0.138,0.477-0.336,1.161-0.497,1.974
							c-0.39,1.635-0.664,3.796-0.778,5.945c-0.016,0.536-0.031,1.071-0.047,1.599c-0.001,0.437-0.003,0.867-0.004,1.283
							c0,0.808,0,1.563,0,2.209c0,1.293,0,2.155,0,2.155L21.998,37.392z"/>
					</g>
					<path fill="#231F20" d="M14.362,27.111l1.481,0.242c0,0,0.085-0.612,0.229-1.211c0.064-0.301,0.129-0.603,0.178-0.828
						c0.063-0.221,0.105-0.369,0.105-0.369l-1.45-0.387c0,0-0.044,0.157-0.111,0.394c-0.052,0.239-0.121,0.559-0.19,0.877
						C14.454,26.465,14.363,27.111,14.362,27.111z"/>
					<path fill="#231F20" d="M13.973,31.763l1.5,0.009c0,0,0.018-0.62,0.037-1.239c0.001-0.311,0.034-0.618,0.055-0.85
						c0.021-0.231,0.035-0.385,0.035-0.385l-1.495-0.136c0,0-0.014,0.163-0.036,0.406s-0.056,0.567-0.058,0.893
						C13.992,31.112,13.973,31.763,13.973,31.763z"/>
					<rect x="13.968" y="33.783" fill="#231F20" width="1.5" height="2.56"/>
				</g>
			</g>
			<g>
				<g>
					<g>
						<path fill="none" d="M22.853,25.959c0,0,0.038-0.144,0.128-0.37c0.095-0.218,0.18-0.591,0.358-0.933
							c0.292-0.761,0.81-1.611,1.246-2.122c0.106-0.156,0.212-0.196,0.297-0.316c0.089-0.096,0.157-0.102,0.213-0.181
							c0.063-0.041,0.077-0.018,0.039-0.028c0,0.013,0.007,0.025-0.002,0.005c0.002,0.02-0.006-0.025-0.002-0.007L24.46,7.038
							c0,0-0.431,0.021-1.181,0.095c-0.752,0.042-1.808,0.3-3.036,0.687c-0.602,0.235-1.252,0.493-1.919,0.823
							c-0.669,0.375-1.348,0.766-1.945,1.189c-0.563,0.438-1.191,0.905-1.708,1.402c-0.495,0.498-1.055,1.017-1.477,1.544
							c-1.8,2.118-2.961,4.329-3.637,5.96c-0.688,1.639-1.017,2.733-1.016,2.733L22.853,25.959z"/>
					</g>
					<path fill="#231F20" d="M21.136,15.057l0.751,1.299c0,0,0.118-0.072,0.295-0.18c0.188-0.09,0.449-0.189,0.704-0.302
						c0.249-0.132,0.534-0.154,0.732-0.219c0.202-0.052,0.337-0.086,0.337-0.086l-0.27-1.479c0,0-0.166,0.041-0.416,0.103
						c-0.245,0.076-0.592,0.115-0.9,0.27c-0.315,0.135-0.634,0.26-0.865,0.373C21.283,14.969,21.136,15.057,21.136,15.057z"/>
					<path fill="#231F20" d="M17.676,18.358l1.229,0.862c0,0,0.072-0.134,0.215-0.304c0.139-0.173,0.325-0.403,0.51-0.634
						c0.174-0.243,0.402-0.424,0.55-0.587c0.154-0.156,0.257-0.259,0.257-0.259l-1.022-1.099c0,0-0.118,0.119-0.296,0.297
						c-0.169,0.185-0.432,0.402-0.628,0.672c-0.209,0.26-0.418,0.52-0.575,0.714C17.756,18.212,17.676,18.358,17.676,18.358z"/>
					<path fill="#231F20" d="M15.543,22.545l1.409,0.517c0,0,0.19-0.583,0.454-1.13c0.125-0.277,0.25-0.554,0.343-0.762
						c0.108-0.199,0.18-0.331,0.18-0.331l-1.328-0.698c0,0-0.079,0.145-0.196,0.363c-0.102,0.225-0.237,0.524-0.372,0.824
						C15.747,21.922,15.543,22.545,15.543,22.545z"/>
				</g>
			</g>
			<g>
				<g>
					<g>
						<path fill="none" d="M25.13,22.006l13.458-0.003L38.582,7.004c0,0-3.452,0.001-6.905,0.002c-1.726,0-3.452,0.001-4.747,0.001
							c-0.647,0-1.187,0-1.564,0c-0.259,0.003-0.462,0.005-0.601,0.007c-0.196,0.021-0.306,0.022-0.306,0.022L25.13,22.006z"/>
					</g>
					<rect x="35.006" y="13.973" fill="#231F20" width="2.56" height="1.5"/>
					<rect x="30.415" y="13.974" fill="#231F20" width="2.56" height="1.5"/>
					<polygon fill="#231F20" points="25.838,13.976 25.841,15.476 28.401,15.476 28.398,13.975 					"/>
				</g>
			</g>
			<g>
				<g>
					<g>
						<path fill="none" d="M38.588,22.002l13.204-0.003l1.167-14.935c0,0-0.108-0.007-0.309-0.022C52.452,7.035,52.142,7,51.799,7
							c-0.377,0-0.917,0-1.564,0c-1.294,0-3.021,0.001-4.747,0.001c-3.453,0.001-6.905,0.002-6.905,0.002L38.588,22.002z"/>
					</g>
					<rect x="48.797" y="13.969" fill="#231F20" width="2.56" height="1.5"/>
					<rect x="44.206" y="13.97" fill="#231F20" width="2.559" height="1.5"/>
					<rect x="39.63" y="13.972" fill="#231F20" width="2.56" height="1.5"/>
				</g>
			</g>
			<g>
				<g>
					<g>
						<path fill="none" d="M51.792,21.999c0.003-0.018-0.004,0.025-0.006,0.017c0.022,0.01-0.072-0.059,0.08,0.054
							c0.058,0.062,0.133,0.071,0.224,0.197c0.089,0.095,0.195,0.169,0.301,0.334c0.44,0.535,0.939,1.414,1.236,2.174
							c0.158,0.37,0.258,0.727,0.35,0.951c0.09,0.228,0.117,0.383,0.117,0.383L68.46,21.8c0,0-0.31-1.09-0.961-2.729
							c-0.666-1.635-1.772-3.849-3.515-5.987c-0.406-0.532-0.919-1.057-1.431-1.562c-0.479-0.508-1.088-0.983-1.659-1.429
							c-1.127-0.871-2.566-1.658-3.752-2.098c-0.595-0.258-1.166-0.408-1.677-0.533c-0.511-0.12-0.954-0.241-1.328-0.284
							c-0.748-0.086-1.179-0.114-1.179-0.114L51.792,21.999z"/>
					</g>
					<path fill="#231F20" d="M60.449,20.389l-1.341,0.673c0,0,0.08,0.127,0.166,0.34c0.092,0.208,0.214,0.487,0.336,0.765
						c0.13,0.274,0.231,0.563,0.306,0.78c0.077,0.216,0.127,0.36,0.127,0.36l1.417-0.496c0,0-0.055-0.154-0.137-0.386
						c-0.08-0.232-0.189-0.542-0.33-0.839c-0.132-0.301-0.265-0.602-0.364-0.828C60.536,20.531,60.449,20.389,60.449,20.389z"/>
					<path fill="#231F20" d="M57.699,16.523l-1.048,1.074c0.041-0.048,1.556,1.76,1.494,1.819l1.246-0.837
						c0,0-0.091-0.139-0.228-0.346c-0.137-0.207-0.359-0.459-0.563-0.722c-0.203-0.265-0.419-0.519-0.604-0.69
						C57.818,16.642,57.699,16.523,57.699,16.523z"/>
					<path fill="#231F20" d="M53.521,14.157l-0.324,1.467c0,0,0.135,0.034,0.338,0.084c0.208,0.032,0.465,0.142,0.72,0.254
						c0.259,0.103,0.517,0.209,0.687,0.332c0.179,0.107,0.299,0.179,0.299,0.179l0.796-1.272c0,0-0.147-0.088-0.367-0.22
						c-0.214-0.147-0.528-0.282-0.847-0.41c-0.314-0.137-0.631-0.267-0.887-0.312C53.688,14.199,53.521,14.157,53.521,14.157z"/>
				</g>
			</g>
			<g>
				<g>
					<g>
						<path fill="none" d="M54.093,26.11c0,0,0.04,0.143,0.109,0.394c0.081,0.243,0.168,0.612,0.256,1.071
							c0.208,0.897,0.365,2.18,0.426,3.496c0.011,0.332,0.021,0.663,0.032,0.989c0,0.418,0.001,0.831,0.002,1.229
							c0,0.808,0,1.563,0,2.208c0,1.292,0,2.154,0,2.154l14.999-0.026c0,0,0-0.862-0.001-2.156c0-0.646,0-1.401,0-2.21
							c-0.001-0.409-0.002-0.832-0.002-1.261c-0.016-0.521-0.03-1.052-0.047-1.583c-0.094-2.126-0.365-4.276-0.728-5.902
							c-0.161-0.81-0.327-1.488-0.472-1.966c-0.135-0.476-0.21-0.747-0.21-0.747L54.093,26.11z"/>
					</g>
					<rect x="61.448" y="34.06" fill="#231F20" width="1.5" height="2.56"/>
					<path fill="#231F20" d="M62.822,29.427l-1.495,0.126c0,0,0.014,0.154,0.034,0.386c0.026,0.231,0.042,0.541,0.047,0.852
						c0.018,0.621,0.037,1.241,0.037,1.241l1.5-0.006c0,0-0.019-0.65-0.039-1.3c-0.005-0.325-0.022-0.65-0.049-0.893
						C62.836,29.59,62.822,29.427,62.822,29.427z"/>
					<path fill="#231F20" d="M62.072,24.831L60.617,25.2c0,0,0.048,0.146,0.091,0.374c0.048,0.226,0.112,0.527,0.175,0.829
						c0.145,0.6,0.214,1.216,0.214,1.216l1.483-0.229c0,0-0.075-0.648-0.227-1.284c-0.067-0.319-0.135-0.639-0.186-0.878
						C62.123,24.987,62.072,24.831,62.072,24.831z"/>
				</g>
			</g>
			<g>
				<g>
					<g>
						<polygon fill="none" points="54.919,37.652 54.922,51.436 69.921,51.423 69.918,37.625 						"/>
					</g>
					<rect x="61.451" y="47.851" fill="#231F20" width="1.5" height="2.56"/>
					<rect x="61.45" y="43.26" fill="#231F20" width="1.5" height="2.56"/>
					<rect x="61.449" y="38.684" fill="#231F20" width="1.5" height="2.56"/>
				</g>
			</g>
			<g>
				<g>
					<g>
						<polygon fill="none" points="54.922,51.436 54.924,65.221 69.923,65.221 69.921,51.423 						"/>
					</g>
					<rect x="61.453" y="61.642" fill="#231F20" width="1.5" height="2.56"/>
					<rect x="61.452" y="57.051" fill="#231F20" width="1.5" height="2.56"/>
					<rect x="61.451" y="52.475" fill="#231F20" width="1.5" height="2.56"/>
				</g>
			</g>
		</g>
	</g>
</g>
</svg>
