<?xml version="1.0" encoding="utf-8"?>
<!-- Generator: Adobe Illustrator 16.0.0, SVG Export Plug-In . SVG Version: 6.00 Build 0)  -->
<!DOCTYPE svg PUBLIC "-//W3C//DTD SVG 1.1//EN" "http://www.w3.org/Graphics/SVG/1.1/DTD/svg11.dtd">
<svg version="1.1" id="Layer_1" xmlns="http://www.w3.org/2000/svg" xmlns:xlink="http://www.w3.org/1999/xlink" x="0px" y="0px"
	 width="128px" height="128px" viewBox="-56 -56 128 128" enable-background="new -56 -56 128 128" xml:space="preserve">
<path fill="#333333" d="M7.854,64.989c-13.949,0-27.905,0-41.872,0.009c-5.246,0.007-9.388-3.196-12.41-9.583
	C-48.216,51.606-49,47.296-49,42.637c0.016-23.117-0.008-46.233,0.016-69.333c0.017-12.656,6.441-22.242,14.927-22.273
	c11.637-0.056,23.271-0.017,34.917-0.017c16.318,0,32.635-0.008,48.953,0.008C58.67-48.97,65.009-39.368,65-26.081
	c-0.016,22.775-0.007,45.562-0.007,68.336c0,13.209-6.308,22.734-15.118,22.743C35.863,65.005,21.869,64.989,7.854,64.989z M8,60.95
	c13.956,0,27.912,0,41.875,0c7.301-0.009,12.453-7.776,12.453-18.75c0.009-22.656,0.009-45.311,0-67.963
	c0-11.522-5.041-19.184-12.707-19.184c-27.832-0.016-55.667-0.016-83.493,0c-7.288,0-12.449,7.856-12.449,18.794
	c0,22.651,0,45.307,0,67.945c0,11.563,5.05,19.148,12.72,19.157C-19.745,60.95-5.869,60.95,8,60.95z"/>
<path fill="#333333" d="M59.484,7.859c0,10.855,0.008,21.695,0,32.552c-0.007,10.478-4.525,17.949-10.821,17.958
	c-8.965,0.008-17.923,0.008-26.879,0c-6.104,0-10.764-7.625-10.771-17.723c-0.022-22.041-0.015-44.042,0-66.078
	c0.007-9.775,4.622-17.398,10.534-17.424c9.127-0.025,18.245-0.025,27.365-0.008c5.978,0.018,10.549,7.633,10.564,17.596
	C59.507-14.23,59.484-3.181,59.484,7.859z"/>
<path fill="#333333" d="M-13.474,4.976c-2.214-2.155-4.462-4.29-6.652-6.472c-1.546-1.556-1.685-2.867-0.414-4.008
	c1.4-1.262,2.681-0.78,3.884,0.409c3.55,3.519,7.118,6.995,10.647,10.512c1.305,1.285,1.381,4.144,0.101,5.463
	c-3.543,3.599-7.125,7.169-10.724,10.724c-1.197,1.185-2.542,1.232-3.729,0.008c-1.212-1.24-0.986-2.576,0.204-3.721
	c2.261-2.228,4.543-4.398,7.271-7.059c-1.305-0.066-1.988-0.123-2.672-0.123c-6.325-0.008-12.66-0.008-18.997-0.008
	c-0.473,0-0.95,0.017-1.415-0.017c-1.71-0.163-2.982-1.374-2.843-2.818c0.179-1.865,1.407-2.386,3.129-2.369
	c6.659,0.031,13.328,0.016,20.003,0.016c0.661,0,1.304,0,1.963,0C-13.645,5.326-13.561,5.155-13.474,4.976z"/>
<g>
	<g>
		<g>
			<g>
				<g>
					<g>
						<rect x="-3.061" y="7.861" fill="none" width="14.998" height="13.79"/>
					</g>
					<rect x="3.469" y="18.071" fill-rule="evenodd" clip-rule="evenodd" fill="#231F20" width="1.5" height="2.56"/>
					<rect x="3.469" y="13.48" fill-rule="evenodd" clip-rule="evenodd" fill="#231F20" width="1.5" height="2.561"/>
					<rect x="3.469" y="8.904" fill-rule="evenodd" clip-rule="evenodd" fill="#231F20" width="1.5" height="2.561"/>
				</g>
			</g>
			<g>
				<g>
					<g>
						<polygon fill="none" points="-3.061,21.648 -3.061,35.438 11.938,35.445 11.938,21.652 						"/>
					</g>
					<rect x="3.469" y="31.863" fill-rule="evenodd" clip-rule="evenodd" fill="#231F20" width="1.5" height="2.56"/>
					<rect x="3.469" y="27.271" fill-rule="evenodd" clip-rule="evenodd" fill="#231F20" width="1.5" height="2.561"/>
					<rect x="3.469" y="22.695" fill-rule="evenodd" clip-rule="evenodd" fill="#231F20" width="1.5" height="2.561"/>
				</g>
			</g>
			<g>
				<g>
					<g>
						<path fill="none" d="M-3.061,35.438c0,0,0,0.861,0,2.154c0,0.646,0,1.4,0,2.208c0,0.201,0,0.406,0,0.613
							c-0.005,0.164-0.011,0.33-0.016,0.498c-0.008,0.335-0.017,0.675-0.025,1.015c-0.105,1.33-0.245,2.643-0.468,3.536
							c-0.079,0.471-0.198,0.813-0.262,1.069c-0.067,0.253-0.105,0.396-0.105,0.396l14.345,4.382c0,0,0.075-0.271,0.207-0.746
							c0.125-0.475,0.333-1.16,0.482-1.963c0.381-1.626,0.631-3.747,0.777-5.854c0.015-0.521,0.03-1.043,0.045-1.556
							c0.006-0.257,0.013-0.512,0.019-0.764c0-0.208,0-0.414,0-0.617c0-0.808,0-1.563,0-2.209c0-1.293,0-2.155,0-2.155
							L-3.061,35.438z"/>
					</g>
					<path fill-rule="evenodd" clip-rule="evenodd" fill="#231F20" d="M4.552,45.717l-1.481-0.238c0,0-0.023,0.152-0.058,0.382
						c-0.046,0.227-0.108,0.529-0.17,0.831c-0.109,0.609-0.278,1.2-0.278,1.2l1.452,0.378c0,0,0.18-0.629,0.295-1.271
						c0.065-0.319,0.13-0.64,0.18-0.879C4.527,45.878,4.552,45.717,4.552,45.717z"/>
					<path fill-rule="evenodd" clip-rule="evenodd" fill="#231F20" d="M4.951,41.072l-1.5-0.028c0,0-0.017,0.622-0.034,1.244
						c-0.051,0.619-0.103,1.238-0.103,1.238l1.494,0.141c0,0,0.053-0.648,0.107-1.296C4.933,41.722,4.951,41.072,4.951,41.072z"/>
					<rect x="3.469" y="36.486" fill-rule="evenodd" clip-rule="evenodd" fill="#231F20" width="1.5" height="2.561"/>
				</g>
			</g>
			<g>
				<g>
					<g>
						<path fill="none" d="M-3.938,46.928c0,0-0.042,0.141-0.127,0.37c-0.092,0.219-0.175,0.596-0.35,0.934
							c-0.283,0.764-0.788,1.581-1.2,2.064c-0.206,0.246-0.383,0.384-0.489,0.469c-0.108,0.067-0.149,0.089-0.156,0.088
							c-0.003,0.035-0.008-0.012-0.005-0.004c0-0.009,0.011,0.035,0.004,0.012c-0.005-0.021-0.005-0.01-0.006-0.011l0.849,14.975
							c0,0,0.429-0.023,1.176-0.102c0.373-0.026,0.821-0.146,1.335-0.256c0.51-0.126,1.102-0.245,1.687-0.488
							c1.215-0.426,2.526-1.093,3.745-1.946c1.208-0.857,2.315-1.883,3.225-2.95c1.828-2.141,2.997-4.39,3.658-6.029
							c0.381-0.832,0.566-1.507,0.749-1.989c0.168-0.481,0.249-0.754,0.25-0.754L-3.938,46.928z"/>
					</g>
					<path fill-rule="evenodd" clip-rule="evenodd" fill="#231F20" d="M-2.189,57.773l-0.748-1.301c0,0-0.48,0.308-1.013,0.482
						c-0.255,0.12-0.523,0.192-0.73,0.229c-0.203,0.048-0.339,0.08-0.339,0.08l0.286,1.473c0,0,0.167-0.039,0.417-0.097
						c0.254-0.049,0.583-0.139,0.896-0.281C-2.766,58.139-2.189,57.773-2.189,57.773z"/>
					<path fill-rule="evenodd" clip-rule="evenodd" fill="#231F20" d="M1.282,54.486l-1.229-0.86c0,0-0.076,0.131-0.211,0.306
						c-0.14,0.172-0.326,0.399-0.513,0.628c-0.176,0.24-0.396,0.43-0.549,0.585c-0.155,0.153-0.259,0.255-0.259,0.255l1.015,1.105
						c0,0,0.12-0.118,0.3-0.294c0.177-0.179,0.431-0.403,0.63-0.672c0.211-0.259,0.421-0.518,0.58-0.711
						C1.198,54.63,1.283,54.486,1.282,54.486z"/>
					<path fill-rule="evenodd" clip-rule="evenodd" fill="#231F20" d="M3.396,50.287L1.984,49.78c0,0-0.185,0.585-0.446,1.133
						c-0.122,0.278-0.245,0.556-0.336,0.764c-0.107,0.199-0.179,0.332-0.179,0.332l1.332,0.69c0,0,0.078-0.146,0.195-0.363
						c0.1-0.226,0.232-0.527,0.365-0.828C3.197,50.911,3.396,50.286,3.396,50.287z"/>
				</g>
			</g>
			<g>
				<g>
					<g>
						<path fill="none" d="M-6.267,50.85l-0.001,0.005c-0.025,0.002,0.083,0.021-0.174,0.016c-0.377,0-0.916,0-1.562,0
							c-1.292,0-3.015,0-4.738,0c-3.446,0-6.892,0-6.892,0l0.002,14.998c0,0,3.45,0,6.899,0c1.725,0,3.45,0,4.744,0
							c0.647,0,1.186,0,1.563,0c0.12,0.006,0.523-0.015,0.7-0.025c0.201-0.012,0.308-0.019,0.308-0.019L-6.267,50.85z"/>
					</g>
					<rect x="-18.613" y="57.399" fill-rule="evenodd" clip-rule="evenodd" fill="#231F20" width="2.56" height="1.5"/>
					<rect x="-14.022" y="57.399" fill-rule="evenodd" clip-rule="evenodd" fill="#231F20" width="2.56" height="1.5"/>
					<rect x="-9.446" y="57.399" fill-rule="evenodd" clip-rule="evenodd" fill="#231F20" width="2.56" height="1.5"/>
				</g>
			</g>
			<g>
				<g>
					<g>
						<path fill="none" d="M-19.633,50.87h-13.112c0-0.011,0.001-0.023,0.002-0.021l-1.356,14.938l1.255,0.08h13.212L-19.633,50.87z
							"/>
					</g>
					<rect x="-32.404" y="57.399" fill-rule="evenodd" clip-rule="evenodd" fill="#231F20" width="2.56" height="1.5"/>
					<rect x="-27.813" y="57.399" fill-rule="evenodd" clip-rule="evenodd" fill="#231F20" width="2.56" height="1.5"/>
					<rect x="-23.237" y="57.399" fill-rule="evenodd" clip-rule="evenodd" fill="#231F20" width="2.56" height="1.5"/>
				</g>
			</g>
			<g>
				<g>
					<g>
						<path fill="none" d="M-32.743,50.85c0,0,0,0.006-0.001,0.016c0.012-0.046-0.007,0.026,0.007-0.015
							c0.063,0.038-0.247-0.093-0.701-0.648c-0.447-0.54-0.945-1.416-1.245-2.171c-0.157-0.371-0.26-0.725-0.352-0.948
							c-0.09-0.229-0.118-0.383-0.118-0.383l-14.356,4.343c0,0,0.061,0.27,0.233,0.749c0.177,0.479,0.393,1.159,0.735,1.979
							c0.674,1.636,1.787,3.849,3.532,5.976c1.709,2.131,4.251,4.101,6.737,5.048c1.187,0.522,2.266,0.688,2.996,0.862
							c0.743,0.11,1.176,0.131,1.176,0.131L-32.743,50.85z"/>
					</g>
					<path fill-rule="evenodd" clip-rule="evenodd" fill="#231F20" d="M-41.495,52.436l1.339-0.677c0,0-0.078-0.129-0.166-0.34
						c-0.092-0.209-0.216-0.486-0.339-0.764c-0.132-0.273-0.231-0.563-0.308-0.779c-0.077-0.216-0.129-0.36-0.129-0.36l-1.415,0.499
						c0,0,0.056,0.154,0.139,0.386c0.082,0.232,0.188,0.542,0.331,0.839c0.134,0.301,0.268,0.602,0.368,0.826
						C-41.579,52.293-41.495,52.436-41.495,52.436z"/>
					<path fill-rule="evenodd" clip-rule="evenodd" fill="#231F20" d="M-38.734,56.293l1.047-1.075
						c-0.046,0.054-1.557-1.763-1.5-1.816l-1.243,0.841c0,0,0.352,0.562,0.793,1.065c0.21,0.259,0.416,0.521,0.604,0.69
						C-38.853,56.175-38.734,56.293-38.734,56.293z"/>
					<path fill-rule="evenodd" clip-rule="evenodd" fill="#231F20" d="M-34.571,58.677l0.342-1.462c0,0-0.551-0.102-1.055-0.347
						c-0.265-0.09-0.509-0.227-0.687-0.342c-0.183-0.107-0.304-0.179-0.304-0.179l-0.801,1.27c0,0,0.147,0.086,0.367,0.216
						c0.217,0.137,0.516,0.302,0.84,0.417C-35.248,58.547-34.571,58.677-34.571,58.677z"/>
				</g>
			</g>
			<g>
				<g>
					<g>
						<path fill="none" d="M-35.153,46.7c0,0-0.04-0.143-0.109-0.393c-0.081-0.242-0.17-0.61-0.258-1.069
							c-0.21-0.894-0.366-2.177-0.433-3.491c-0.01-0.331-0.02-0.663-0.03-0.989c-0.001-0.412-0.003-0.817-0.004-1.21
							c0-0.808,0-1.562,0-2.208c0-1.293,0-2.154,0-2.154l-14.998,0.01c0,0,0,0.862,0,2.155c0,0.647,0,1.401,0,2.21
							c0.001,0.415,0.003,0.845,0.004,1.281c0.015,0.521,0.03,1.052,0.045,1.582c0.102,2.128,0.372,4.277,0.739,5.904
							c0.161,0.811,0.33,1.488,0.476,1.967c0.135,0.476,0.212,0.748,0.212,0.748L-35.153,46.7z"/>
					</g>
					<rect x="-44.017" y="36.209" fill-rule="evenodd" clip-rule="evenodd" fill="#231F20" width="1.5" height="2.56"/>
					<path fill-rule="evenodd" clip-rule="evenodd" fill="#231F20" d="M-43.886,43.402l1.495-0.129c0,0-0.014-0.154-0.034-0.386
						c-0.024-0.231-0.048-0.54-0.05-0.852c-0.018-0.62-0.036-1.241-0.036-1.241l-1.5,0.009c0,0,0.019,0.65,0.038,1.3
						c0.003,0.325,0.028,0.65,0.053,0.894C-43.9,43.24-43.886,43.402-43.886,43.402z"/>
					<path fill-rule="evenodd" clip-rule="evenodd" fill="#231F20" d="M-43.128,47.997l1.454-0.371c0,0-0.049-0.146-0.092-0.373
						c-0.048-0.227-0.112-0.528-0.176-0.829c-0.145-0.6-0.217-1.216-0.217-1.216l-1.482,0.231c0,0,0.077,0.647,0.229,1.283
						c0.068,0.319,0.136,0.639,0.187,0.878C-43.18,47.842-43.128,47.997-43.128,47.997z"/>
				</g>
			</g>
			<g>
				<g>
					<g>
						<polygon fill="none" points="-35.987,35.186 -35.987,21.396 -50.985,21.402 -50.985,35.195 						"/>
					</g>
					<rect x="-44.017" y="22.418" fill-rule="evenodd" clip-rule="evenodd" fill="#231F20" width="1.5" height="2.56"/>
					<rect x="-44.017" y="27.009" fill-rule="evenodd" clip-rule="evenodd" fill="#231F20" width="1.5" height="2.56"/>
					<rect x="-44.017" y="31.585" fill-rule="evenodd" clip-rule="evenodd" fill="#231F20" width="1.5" height="2.56"/>
				</g>
			</g>
			<g>
				<g>
					<g>
						<rect x="-50.985" y="7.608" fill="none" width="14.998" height="13.789"/>
					</g>
					<rect x="-44.017" y="8.627" fill-rule="evenodd" clip-rule="evenodd" fill="#231F20" width="1.5" height="2.56"/>
					<rect x="-44.017" y="13.218" fill-rule="evenodd" clip-rule="evenodd" fill="#231F20" width="1.5" height="2.56"/>
					<rect x="-44.017" y="17.794" fill-rule="evenodd" clip-rule="evenodd" fill="#231F20" width="1.5" height="2.56"/>
				</g>
			</g>
			<g>
				<g>
					<g>
						<rect x="-50.985" y="-6.183" fill="none" width="14.998" height="13.789"/>
					</g>
					<rect x="-44.017" y="-5.164" fill-rule="evenodd" clip-rule="evenodd" fill="#231F20" width="1.5" height="2.56"/>
					<rect x="-44.017" y="-0.573" fill-rule="evenodd" clip-rule="evenodd" fill="#231F20" width="1.5" height="2.56"/>
					<rect x="-44.017" y="4.003" fill-rule="evenodd" clip-rule="evenodd" fill="#231F20" width="1.5" height="2.56"/>
				</g>
			</g>
			<g>
				<g>
					<g>
						<polygon fill="none" points="-35.987,-6.182 -35.987,-19.97 -50.985,-19.979 -50.985,-6.185 						"/>
					</g>
					<rect x="-44.017" y="-18.956" fill-rule="evenodd" clip-rule="evenodd" fill="#231F20" width="1.5" height="2.56"/>
					<rect x="-44.017" y="-14.364" fill-rule="evenodd" clip-rule="evenodd" fill="#231F20" width="1.5" height="2.56"/>
					<rect x="-44.017" y="-9.788" fill-rule="evenodd" clip-rule="evenodd" fill="#231F20" width="1.5" height="2.56"/>
				</g>
			</g>
			<g>
				<g>
					<g>
						<path fill="none" d="M-35.987-19.97c0,0,0-0.862,0-2.155c0-0.646,0-1.4,0-2.208c0.001-0.392,0.003-0.797,0.005-1.208
							c0.01-0.321,0.02-0.646,0.03-0.973c0.076-1.291,0.225-2.563,0.447-3.443c0.083-0.458,0.193-0.807,0.265-1.055
							c0.069-0.249,0.108-0.391,0.108-0.391l-14.311-4.489c0,0-0.078,0.272-0.215,0.749c-0.138,0.477-0.336,1.161-0.497,1.974
							c-0.39,1.635-0.664,3.796-0.778,5.945c-0.016,0.536-0.031,1.071-0.047,1.599c-0.001,0.437-0.003,0.867-0.004,1.283
							c0,0.808,0,1.563,0,2.209c0,1.293,0,2.155,0,2.155L-35.987-19.97z"/>
					</g>
					<path fill-rule="evenodd" clip-rule="evenodd" fill="#231F20" d="M-43.623-30.251l1.481,0.242c0,0,0.085-0.612,0.229-1.211
						c0.064-0.301,0.129-0.603,0.178-0.828c0.063-0.221,0.105-0.369,0.105-0.369l-1.45-0.387c0,0-0.044,0.157-0.111,0.394
						c-0.052,0.239-0.121,0.559-0.19,0.877C-43.531-30.897-43.622-30.251-43.623-30.251z"/>
					<path fill-rule="evenodd" clip-rule="evenodd" fill="#231F20" d="M-44.012-25.599l1.5,0.009c0,0,0.018-0.62,0.037-1.239
						c0.001-0.311,0.034-0.618,0.055-0.85c0.021-0.231,0.035-0.385,0.035-0.385l-1.495-0.136c0,0-0.014,0.163-0.036,0.406
						s-0.056,0.567-0.058,0.893C-43.993-26.25-44.012-25.599-44.012-25.599z"/>
					<rect x="-44.017" y="-23.579" fill-rule="evenodd" clip-rule="evenodd" fill="#231F20" width="1.5" height="2.56"/>
				</g>
			</g>
			<g>
				<g>
					<g>
						<path fill="none" d="M-35.132-31.403c0,0,0.038-0.144,0.128-0.37c0.095-0.218,0.18-0.591,0.358-0.933
							c0.292-0.761,0.81-1.611,1.246-2.122c0.106-0.156,0.212-0.196,0.297-0.316c0.089-0.096,0.157-0.102,0.213-0.181
							c0.063-0.041,0.077-0.018,0.039-0.028c0,0.013,0.007,0.025-0.002,0.005c0.002,0.02-0.006-0.025-0.002-0.007l-0.67-14.969
							c0,0-0.431,0.021-1.181,0.095c-0.752,0.042-1.808,0.3-3.036,0.687c-0.602,0.235-1.252,0.493-1.919,0.823
							c-0.669,0.375-1.348,0.766-1.945,1.189c-0.563,0.438-1.191,0.905-1.708,1.402c-0.495,0.498-1.055,1.017-1.477,1.544
							c-1.8,2.118-2.961,4.329-3.637,5.96c-0.688,1.639-1.017,2.733-1.016,2.733L-35.132-31.403z"/>
					</g>
					<path fill-rule="evenodd" clip-rule="evenodd" fill="#231F20" d="M-36.849-42.305l0.751,1.299c0,0,0.118-0.072,0.295-0.18
						c0.188-0.09,0.449-0.189,0.704-0.302c0.249-0.132,0.534-0.154,0.732-0.219c0.202-0.052,0.337-0.086,0.337-0.086l-0.27-1.479
						c0,0-0.166,0.041-0.416,0.103c-0.245,0.076-0.592,0.115-0.9,0.27c-0.315,0.135-0.634,0.26-0.865,0.373
						C-36.702-42.393-36.849-42.305-36.849-42.305z"/>
					<path fill-rule="evenodd" clip-rule="evenodd" fill="#231F20" d="M-40.309-39.004l1.229,0.862c0,0,0.072-0.134,0.215-0.304
						c0.139-0.173,0.325-0.403,0.51-0.634c0.174-0.243,0.402-0.424,0.55-0.587c0.154-0.156,0.257-0.259,0.257-0.259l-1.022-1.099
						c0,0-0.118,0.119-0.296,0.297c-0.169,0.185-0.432,0.402-0.628,0.672c-0.209,0.26-0.418,0.52-0.575,0.714
						C-40.229-39.15-40.309-39.004-40.309-39.004z"/>
					<path fill-rule="evenodd" clip-rule="evenodd" fill="#231F20" d="M-42.442-34.817l1.409,0.517c0,0,0.19-0.583,0.454-1.13
						c0.125-0.277,0.25-0.554,0.343-0.762c0.108-0.199,0.18-0.331,0.18-0.331l-1.328-0.698c0,0-0.079,0.145-0.196,0.363
						c-0.102,0.225-0.237,0.524-0.372,0.824C-42.238-35.44-42.442-34.817-42.442-34.817z"/>
				</g>
			</g>
			<g>
				<g>
					<g>
						<path fill="none" d="M-32.855-35.356l13.458-0.003l-0.006-14.999c0,0-3.452,0.001-6.905,0.002
							c-1.726,0-3.452,0.001-4.747,0.001c-0.647,0-1.187,0-1.564,0c-0.259,0.003-0.462,0.005-0.601,0.007
							c-0.196,0.021-0.306,0.022-0.306,0.022L-32.855-35.356z"/>
					</g>
					<rect x="-22.979" y="-43.389" fill-rule="evenodd" clip-rule="evenodd" fill="#231F20" width="2.56" height="1.5"/>
					<rect x="-27.57" y="-43.388" fill-rule="evenodd" clip-rule="evenodd" fill="#231F20" width="2.56" height="1.5"/>
					<polygon fill-rule="evenodd" clip-rule="evenodd" fill="#231F20" points="-32.147,-43.386 -32.144,-41.886 -29.584,-41.886 
						-29.587,-43.387 					"/>
				</g>
			</g>
			<g>
				<g>
					<g>
						<path fill="none" d="M-19.397-35.36l13.204-0.003l1.167-14.935c0,0-0.108-0.007-0.309-0.022
							c-0.198-0.007-0.508-0.042-0.851-0.042c-0.377,0-0.917,0-1.564,0c-1.294,0-3.021,0.001-4.747,0.001
							c-3.453,0.001-6.905,0.002-6.905,0.002L-19.397-35.36z"/>
					</g>
					<rect x="-9.188" y="-43.393" fill-rule="evenodd" clip-rule="evenodd" fill="#231F20" width="2.56" height="1.5"/>
					<rect x="-13.779" y="-43.392" fill-rule="evenodd" clip-rule="evenodd" fill="#231F20" width="2.559" height="1.5"/>
					<rect x="-18.355" y="-43.39" fill-rule="evenodd" clip-rule="evenodd" fill="#231F20" width="2.56" height="1.5"/>
				</g>
			</g>
			<g>
				<g>
					<g>
						<path fill="none" d="M-6.193-35.363c0.003-0.018-0.004,0.025-0.006,0.017c0.022,0.01-0.072-0.059,0.08,0.054
							c0.058,0.062,0.133,0.071,0.224,0.197c0.089,0.095,0.195,0.169,0.301,0.334c0.44,0.535,0.939,1.414,1.236,2.174
							c0.158,0.37,0.258,0.727,0.35,0.951c0.09,0.228,0.117,0.383,0.117,0.383l14.366-4.309c0,0-0.31-1.09-0.961-2.729
							c-0.666-1.635-1.772-3.849-3.515-5.987C5.593-44.81,5.08-45.335,4.568-45.84c-0.479-0.508-1.088-0.983-1.659-1.429
							c-1.127-0.871-2.566-1.658-3.752-2.098c-0.595-0.258-1.166-0.408-1.677-0.533c-0.511-0.12-0.954-0.241-1.328-0.284
							c-0.748-0.086-1.179-0.114-1.179-0.114L-6.193-35.363z"/>
					</g>
					<path fill-rule="evenodd" clip-rule="evenodd" fill="#231F20" d="M2.464-36.973L1.123-36.3c0,0,0.08,0.127,0.166,0.34
						c0.092,0.208,0.214,0.487,0.336,0.765c0.13,0.274,0.231,0.563,0.306,0.78c0.077,0.216,0.127,0.36,0.127,0.36l1.417-0.496
						c0,0-0.055-0.154-0.137-0.386c-0.08-0.232-0.189-0.542-0.33-0.839c-0.132-0.301-0.265-0.602-0.364-0.828
						C2.551-36.831,2.464-36.973,2.464-36.973z"/>
					<path fill-rule="evenodd" clip-rule="evenodd" fill="#231F20" d="M-0.286-40.839l-1.048,1.074
						c0.041-0.048,1.556,1.76,1.494,1.819l1.246-0.837c0,0-0.091-0.139-0.228-0.346c-0.137-0.207-0.359-0.459-0.563-0.722
						c-0.203-0.265-0.419-0.519-0.605-0.69C-0.167-40.72-0.286-40.839-0.286-40.839z"/>
					<path fill-rule="evenodd" clip-rule="evenodd" fill="#231F20" d="M-4.464-43.205l-0.324,1.467c0,0,0.135,0.034,0.338,0.084
						c0.208,0.032,0.465,0.142,0.72,0.254c0.259,0.103,0.517,0.209,0.687,0.332c0.179,0.107,0.299,0.179,0.299,0.179l0.796-1.272
						c0,0-0.147-0.088-0.367-0.22c-0.214-0.147-0.528-0.282-0.847-0.41c-0.314-0.137-0.631-0.267-0.887-0.312
						C-4.297-43.163-4.464-43.205-4.464-43.205z"/>
				</g>
			</g>
			<g>
				<g>
					<g>
						<path fill="none" d="M-3.892-31.252c0,0,0.04,0.143,0.109,0.394c0.081,0.243,0.168,0.612,0.256,1.071
							c0.208,0.897,0.365,2.18,0.426,3.496c0.011,0.332,0.021,0.663,0.032,0.989c0,0.418,0.001,0.831,0.002,1.229
							c0,0.808,0,1.562,0,2.208c0,1.292,0,2.154,0,2.154l14.999-0.026c0,0,0-0.862-0.001-2.156c0-0.646,0-1.401,0-2.21
							c-0.001-0.409-0.002-0.832-0.002-1.261c-0.016-0.522-0.03-1.052-0.046-1.583c-0.094-2.126-0.366-4.276-0.728-5.902
							c-0.161-0.81-0.327-1.488-0.472-1.966c-0.134-0.476-0.21-0.747-0.21-0.747L-3.892-31.252z"/>
					</g>
					<rect x="3.463" y="-23.302" fill-rule="evenodd" clip-rule="evenodd" fill="#231F20" width="1.5" height="2.56"/>
					<path fill-rule="evenodd" clip-rule="evenodd" fill="#231F20" d="M4.837-27.935l-1.495,0.126c0,0,0.014,0.154,0.034,0.386
						c0.026,0.231,0.042,0.541,0.047,0.852C3.441-25.95,3.46-25.33,3.46-25.33l1.5-0.006c0,0-0.019-0.65-0.039-1.3
						c-0.005-0.325-0.022-0.65-0.049-0.893C4.851-27.772,4.837-27.935,4.837-27.935z"/>
					<path fill-rule="evenodd" clip-rule="evenodd" fill="#231F20" d="M4.087-32.531l-1.455,0.369c0,0,0.048,0.146,0.091,0.374
						c0.048,0.226,0.112,0.527,0.175,0.829c0.145,0.6,0.214,1.216,0.214,1.216l1.483-0.229c0,0-0.075-0.648-0.227-1.284
						c-0.067-0.319-0.135-0.639-0.186-0.878C4.138-32.375,4.087-32.531,4.087-32.531z"/>
				</g>
			</g>
			<g>
				<g>
					<g>
						<polygon fill="none" points="-3.066,-19.71 -3.063,-5.926 11.936,-5.939 11.933,-19.737 						"/>
					</g>
					<rect x="3.466" y="-9.511" fill-rule="evenodd" clip-rule="evenodd" fill="#231F20" width="1.5" height="2.56"/>
					<rect x="3.465" y="-14.102" fill-rule="evenodd" clip-rule="evenodd" fill="#231F20" width="1.5" height="2.56"/>
					<rect x="3.464" y="-18.678" fill-rule="evenodd" clip-rule="evenodd" fill="#231F20" width="1.5" height="2.56"/>
				</g>
			</g>
			<g>
				<g>
					<g>
						<polygon fill="none" points="-3.063,-5.926 -3.061,7.859 11.938,7.859 11.936,-5.939 						"/>
					</g>
					<rect x="3.468" y="4.28" fill-rule="evenodd" clip-rule="evenodd" fill="#231F20" width="1.5" height="2.56"/>
					<rect x="3.467" y="-0.311" fill-rule="evenodd" clip-rule="evenodd" fill="#231F20" width="1.5" height="2.56"/>
					<rect x="3.466" y="-4.887" fill-rule="evenodd" clip-rule="evenodd" fill="#231F20" width="1.5" height="2.56"/>
				</g>
			</g>
		</g>
	</g>
</g>
</svg>
