<?xml version="1.0" encoding="utf-8"?>
<!-- Generator: Adobe Illustrator 16.0.0, SVG Export Plug-In . SVG Version: 6.00 Build 0)  -->
<!DOCTYPE svg PUBLIC "-//W3C//DTD SVG 1.1//EN" "http://www.w3.org/Graphics/SVG/1.1/DTD/svg11.dtd">
<svg version="1.1" id="Layer_1" xmlns="http://www.w3.org/2000/svg" xmlns:xlink="http://www.w3.org/1999/xlink" x="0px" y="0px"
	 width="16px" height="16px" viewBox="0 0 16 16" enable-background="new 0 0 16 16" xml:space="preserve">
<path fill-rule="evenodd" clip-rule="evenodd" fill="#EFEFEF" d="M7.982,14.999c-1.713,0-3.427,0-5.142,0.001
	c-0.644,0.001-1.153-0.392-1.524-1.177C1.096,13.356,1,12.826,1,12.254c0.002-2.839-0.001-5.678,0.002-8.515
	c0.002-1.554,0.791-2.731,1.833-2.735c1.429-0.007,2.858-0.002,4.288-0.002c2.004,0,4.008-0.001,6.012,0.001
	c1.088,0.001,1.866,1.18,1.865,2.812c-0.002,2.797-0.001,5.595-0.001,8.392c0,1.622-0.775,2.792-1.857,2.793
	C11.422,15.001,9.703,14.999,7.982,14.999z M8,14.503c1.714,0,3.428,0,5.143,0c0.896-0.001,1.529-0.955,1.529-2.303
	c0.001-2.782,0.001-5.564,0-8.346c0-1.415-0.62-2.356-1.561-2.356c-3.418-0.002-6.836-0.002-10.253,0
	c-0.895,0-1.529,0.965-1.529,2.308c0,2.782,0,5.564,0,8.344c0,1.42,0.62,2.352,1.562,2.353C4.593,14.503,6.297,14.503,8,14.503z"/>
<path fill-rule="evenodd" clip-rule="evenodd" fill="#EFEFEF" d="M13.954,8.012c0,1.179,0.001,2.356,0,3.536
	c-0.001,1.138-0.602,1.95-1.44,1.951c-1.193,0.001-2.386,0.001-3.578,0c-0.813,0-1.433-0.828-1.434-1.926
	c-0.003-2.393-0.002-4.784,0-7.177c0.001-1.062,0.615-1.89,1.403-1.893C10.119,2.5,11.333,2.5,12.547,2.502
	c0.796,0.002,1.404,0.829,1.406,1.911C13.957,5.613,13.954,6.813,13.954,8.012z"/>
<path fill-rule="evenodd" clip-rule="evenodd" fill="#EFEFEF" d="M5.363,7.629C5.091,7.364,4.815,7.102,4.546,6.834
	c-0.19-0.191-0.207-0.352-0.051-0.492c0.172-0.155,0.329-0.096,0.477,0.05C5.408,6.824,5.846,7.251,6.28,7.683
	c0.16,0.158,0.169,0.509,0.012,0.671C5.857,8.796,5.417,9.234,4.975,9.671C4.828,9.816,4.663,9.822,4.517,9.672
	C4.368,9.519,4.396,9.356,4.542,9.215C4.82,8.942,5.1,8.675,5.435,8.348C5.275,8.34,5.191,8.333,5.107,8.333
	C4.33,8.332,3.552,8.332,2.774,8.332c-0.058,0-0.117,0.002-0.174-0.002c-0.21-0.02-0.366-0.169-0.349-0.346
	c0.022-0.229,0.173-0.293,0.384-0.291c0.818,0.004,1.637,0.002,2.457,0.002c0.081,0,0.16,0,0.241,0
	C5.342,7.672,5.352,7.651,5.363,7.629z"/>
</svg>
